<svg viewBox="0 0 11.5 13.568" width="11.5pt" height="13.568pt" xmlns="http://www.w3.org/2000/svg"
    xmlns:xlink="http://www.w3.org/1999/xlink" xmlns:h5="http://www.w3.org/1999/xhtml">
    <g transform="matrix(1 0 0 -1 3 10.326)">
    <!-- <g transform="matrix(1 0 0 -1 3 10.326)"> -->
        <use xlink:href="#g1CF215FEB9E0137630B939449D808E74" x="0" y="0" fill="#ffffff" fill-rule="nonzero"/>
    </g>
    
    <defs>
        <symbol id="g1CF215FEB9E0137630B939449D808E74" overflow="visible">
            <path d="M 0 0m 2.75 7.326c -0.539 0 -1.012 -0.176 -1.408 -0.528c -0.396 -0.352 -0.594 -0.792 -0.594 -1.331c 0 -0.451 0.165 -0.858 0.495 -1.221c 0.077 -0.088 0.319 -0.275 0.726 -0.561c -1.001 -0.517 -1.507 -1.188 -1.507 -2.002c 0 -0.583 0.242 -1.056 0.715 -1.419c 0.44 -0.341 0.957 -0.506 1.562 -0.506c 0.616 0 1.155 0.198 1.606 0.594c 0.451 0.396 0.682 0.913 0.682 1.518c 0 0.506 -0.176 0.957 -0.539 1.364c -0.132 0.143 -0.473 0.396 -1.012 0.737c 0.847 0.451 1.265 1.023 1.265 1.694c 0 1.001 -0.957 1.661 -1.991 1.661Z m 1.419 -1.661c 0 -0.572 -0.341 -1.067 -1.023 -1.474l -1.309 0.858c -0.341 0.22 -0.517 0.506 -0.517 0.847c 0 0.66 0.715 1.067 1.419 1.067c 0.759 0 1.43 -0.539 1.43 -1.298Z m -1.419 -5.511c -0.902 0 -1.661 0.649 -1.661 1.529c 0 0.737 0.407 1.331 1.221 1.782l 1.298 -0.825c 0.528 -0.341 0.792 -0.726 0.792 -1.166c 0 -0.792 -0.825 -1.32 -1.65 -1.32Z "/>
        </symbol>
    </defs>
</svg>